<?xml version="1.0" encoding="UTF-8"?><svg id="b" xmlns="http://www.w3.org/2000/svg" viewBox="0 0 926.98 1058.7"><defs><style>.d{fill:#fff;stroke-width:0px;}</style></defs><g id="c"><path class="d" d="M519.45,0c13.24,10.71,13.55,17.83,1.68,30.52-4.41,4.72-8.4,9.83-12.4,14.54,10.09,7.41,20.07,13.53,28.61,21.26,22.78,20.62,34.59,46.79,35.55,77.47.2,6.4,2.71,8.76,8.04,11.08,20.44,8.91,40.76,18.14,60.89,27.74,6.77,3.23,11.03,9.82,8.07,17.01-2.07,5.02-7.14,10.21-12.11,12.15-3.76,1.46-9.75-1.5-14.28-3.54-18.36-8.3-36.55-17.01-54.91-25.62-37.16,99.19-172.24,99.87-211.14,1.28-36.24,11.9-69.46,28.94-97.26,55.66-24.45,23.5-43.54,50.76-54.86,82.71-10.92,30.8-33.39,50.67-59.57,67.52-7.44,4.79-16.13,2.61-20.97-4.21-4.63-6.51-4.08-17.02,3.19-21.17,29.96-17.1,43.69-45.26,57.79-75.14,29.17-61.85,77.9-104.33,142.19-127.67,16.41-5.96,24.07-13.24,26.54-31.95,7.33-55.66,54.7-93.76,111.28-92.38,7.9.19,12.04-2.18,16.57-8.59C489.58,18.43,498.71,9.49,507.04,0c4.14,0,8.27,0,12.41,0ZM461.29,68.94c-31.2-4.16-68.94,25.78-76.08,61.98-8.37,42.41,17.05,82.46,58.96,92.86,40,9.93,81.71-13.63,93.79-52.98,11.73-38.18-7.78-81.71-43.18-94.58-.81,3.3-2.1,6.47-2.28,9.71-.83,14.41-1.37,28.84-1.95,43.27-.41,10.23-6.47,17.14-15.29,17.28-8.81.15-15.79-6.84-15.65-16.84.28-20.17,1.09-40.34,1.69-60.71Z"/><path class="d" d="M878.57,544.59c24.45,15.73,40.51,37.16,46.34,65.72,9.11,44.61-12.44,89.11-53.61,109.16-6.58,3.2-9.91,7.3-12.01,13.99-9.12,29.17-18.28,58.34-28.38,87.17-1.99,5.69-7.35,12.33-12.7,14.28-12.01,4.36-22.08-7.29-18.12-20.1,7.72-24.93,15.89-49.72,23.85-74.57,1.02-3.17,1.92-6.38,2.96-9.83h-86.21c0,10.4-.7,20.37.13,30.21,2.99,35.57-20.84,66.92-62.1,71.04-12.07,64.71-24.2,129.76-36.73,196.93,19.68-1.01,38.43-.19,56.49-3.36,23.42-4.11,39.03-19.5,46.59-42.17,11.19-33.54,21.67-67.33,33.26-100.73,1.87-5.39,7.1-11.69,12.2-13.46,12.82-4.46,22.38,7.7,17.84,22.14-8.25,26.2-16.98,52.25-25.53,78.36-2.99,9.14-5.73,18.37-9.09,27.37-14.03,37.53-49.06,61.91-89.11,61.93-147.15.06-294.29.04-441.44.02-45.01,0-79.82-25.1-93.93-68.2-24.89-76.03-49.5-152.15-74.22-228.23-.85-2.61-1.73-5.22-2.4-7.88-4.74-18.88-13.46-32.65-31.28-44.61-54.21-36.38-54.82-116.69-3.62-157.2,3.22-2.55,6.54-4.96,9.97-7.55-18.4-32.47-22.71-66.2-6.08-99.83,7.12-14.4,18.69-26.92,29.72-38.94,8.18-8.92,18.01-8.16,24.48-.84,6.59,7.44,4.84,16.86-4.62,24.87-23.44,19.85-32.53,45.29-25.85,74.89,6.69,29.66,26.07,48.7,55.76,56.14,8.25,2.06,17.04,2.37,25.61,2.69,28.92,1.08,57.85,2.1,86.78,2.61,45.91.82,87.15,14.73,123.34,43.09,32.62,25.56,69.45,38.76,110.99,37.5,36.15-1.1,68.69-13.05,97.26-35.2,10.44-8.09,21.48-13.42,34.96-12.88,25.69,1.02,45.34,20.55,45.61,46.61.41,39.63.05,79.26.21,118.89.07,17.23,9.2,29.96,23.51,33.67,21.47,5.56,40.12-9.58,40.23-33.24.21-46.52.04-93.04.08-139.56.03-36.92,22.44-59.74,59.19-61.15,12.67-.48,25.7-.81,37.85-3.96,28.86-7.5,47.15-27.13,53.26-55.95,6.26-29.58-2.48-55.54-26.78-74.46-23.36-18.19-47.43-35.48-71.48-52.76-18.73-13.46-32.54-30.52-40.58-52.15-10.19-27.41-25.2-51.87-44.55-73.77-8.92-10.09-7.2-21.66,3.58-26.47,8.23-3.67,14.48-.37,20.06,5.83,20.96,23.27,37.58,49.3,48.44,78.65,6.97,18.84,18.46,33.37,34.78,44.86,21.39,15.06,42.33,30.78,63.34,46.37,46.84,34.75,59.2,86.25,33.54,139.02-.72,1.49-1.11,3.14-1.78,5.09ZM614.58,698.64c0-18.47.48-35.34-.15-52.18-.52-13.68-13.75-20.09-25.32-12.88-2.33,1.45-4.37,3.34-6.59,4.97-44.81,32.94-94.67,45.79-149.84,37.88-37.46-5.37-69.74-21.78-99.34-44.79-23.86-18.55-51.29-29.81-81.43-31.88-35.7-2.46-71.53-3.43-107.32-4.19-25.84-.54-49.55-6.44-70.62-21.96-2.31-1.7-7.29-2.15-9.81-.84-21.43,11.13-36.07,41.68-32.06,65.72,6.28,37.69,33.44,60.12,73.11,60.13,166.01.04,332.01.02,498.02.02h11.36ZM396.59,730.37c6.94,99.7,13.8,198.16,20.67,296.86h90.66c6.88-99.05,13.74-197.71,20.63-296.86h-131.96ZM98.58,730.24c.31,1.72.41,3.07.81,4.33,27.17,83.86,53.95,167.84,81.82,251.46,7.47,22.42,24.73,36.88,48.5,39.69,17.19,2.03,34.81.4,53,.4-18.31-98.29-36.7-197-55.13-295.88H98.58ZM259.75,730.37c18.52,99.43,36.92,198.19,55.25,296.59h70.58c-6.93-99.28-13.8-197.77-20.7-296.59h-105.14ZM610,1027.17c12.48-66.38,24.97-132.49,37.1-198.68.43-2.34-2.05-6.23-4.29-7.87-19.22-14.07-28.8-32.69-28.24-56.6.26-11.21.04-22.44.04-33.45h-54.37c-6.9,99.08-13.76,197.53-20.66,296.59h70.42ZM740.89,698.48c30.73,0,59.99.95,89.17-.26,31.25-1.3,56-22.03,63.28-50.38,7.38-28.73-4.48-59.04-28.94-74.71-4.89-3.13-8.3-3.27-13.65.11-10.35,6.56-21.17,13.69-32.79,16.61-15.45,3.87-31.83,4.46-47.87,5.51-16.84,1.1-28.37,9.32-28.94,24.8-.94,25.71-.26,51.48-.26,78.32Z"/><path class="d" d="M542.94,473.48c5.16,0,10.33-.26,15.47.06,8.93.56,13.66,5.98,14.56,14.48.86,8.1-5.43,15.78-13.85,16.24-10.97.59-22.04.81-32.97-.07-8.62-.69-13.52-6.72-13.39-15.47.13-8.64,4.75-14.29,13.69-15.11,5.45-.5,10.99-.09,16.49-.09,0-.01,0-.03,0-.04Z"/><path class="d" d="M571.74,405.25c-11.17.21-35.67-27.18-34.21-38.25,1.58-12.04,15.86-18.16,25.03-9.92,8.14,7.31,15.64,15.65,21.99,24.56,7.12,9.98-.65,23.38-12.81,23.61Z"/><path class="d" d="M313.05,343.82c5.11,2,8.39,2.53,10.66,4.32,7.55,5.96,15.15,11.96,21.94,18.73,6.21,6.18,6.15,13.78.53,20.45-5.64,6.7-13.19,7.93-20.3,2.94-7.85-5.51-15.85-11.38-21.88-18.67-3.25-3.92-4.6-11.85-2.97-16.67,1.59-4.68,8.09-7.7,12.02-11.1Z"/><path class="d" d="M481.47,348.32c-8.2,12.35-14.56,24.01-23.2,33.62-2.47,2.74-13.04,1.51-17.18-1.56-3.66-2.71-6.09-11.38-4.57-15.9,3.1-9.21,8.14-18.37,14.57-25.62,3.34-3.77,11.87-5.6,17.05-4.3,4.64,1.16,7.9,7.82,13.33,13.75Z"/><path class="d" d="M678.64,409.86c12.38.27,20.44,10.66,16.69,20.16-3.35,8.5-7.98,16.69-13.23,24.2-4.73,6.78-12.39,7.48-19.35,3.61-6.46-3.59-10.4-9.93-7.25-17.3,3.74-8.74,8.47-17.2,13.85-25.04,2.21-3.21,7.24-4.48,9.28-5.65Z"/><path class="d" d="M274.75,465.37c.19,11.83-11.37,20.09-21.71,15.5-8.05-3.57-16.39-7.92-22.4-14.08-3.62-3.7-5.36-12.37-3.6-17.23,1.53-4.24,10.59-9.9,13.83-8.62,11.08,4.38,21.2,11.33,31.34,17.84,1.81,1.16,1.96,4.92,2.55,6.58Z"/><path class="d" d="M418.11,457.3c-.13,11.65-14.95,32.83-22.71,33.71-5.09.58-12.28-1.13-15.45-4.62-3.13-3.43-4.68-11.42-2.83-15.59,3.52-7.95,9.08-15.59,15.54-21.42,3.4-3.07,11.3-4.07,15.71-2.33,4.75,1.87,7.8,8.05,9.74,10.25Z"/><path class="d" d="M616.33,296.24c0,17.39-4.78,24.52-16.34,24.34-11.15-.18-15.7-7.12-15.71-23.94,0-16.93,5.23-24.81,16.34-24.58,10.62.22,15.71,8.05,15.71,24.19Z"/></g></svg>