<?xml version="1.0" encoding="UTF-8"?><svg id="b" xmlns="http://www.w3.org/2000/svg" viewBox="0 0 1058.53 927.31"><defs><style>.d{fill:#000;stroke-width:0px;}</style></defs><g id="c"><path class="d" d="M1058.53,403.76c-2.8,17.19-5.13,34.47-8.49,51.56-20.22,102.93-62.23,194.85-137.74,269.5-45.23,44.72-98.3,77.22-157.97,98.9-7.55,2.74-10.99,5.95-10.35,14.55.92,12.33.04,24.79.3,37.19.2,9.68-4.17,16.06-13.33,18.26-38,9.15-75.8,19.56-114.21,26.49-45.88,8.28-92.45,8.63-138.97,4.57-51.93-4.52-102.58-15.16-152.02-31.53-8.04-2.66-11.79-8.74-11.66-17.47.24-15.82.07-31.65.07-46.3-24.55-11.46-48.83-21.3-71.7-33.73-104.56-56.83-172-144.84-211.33-255.66C12.75,488.33.75,435.05.01,379.89c-.66-49.18,30.92-92.55,77.61-108.24,6.12-2.06,9.17-5.02,11.39-11.18,13.44-37.52,39.66-61.84,77.63-73.96,4.6-1.47,9.69-5.15,12.04-9.25,16.39-28.6,40.01-47.59,71.61-57.02,3.8-1.13,8.21-3.93,10.09-7.24,25.8-45.33,64.72-65.67,116.49-62.68,3.34.19,8-1.65,10.12-4.17,47.57-56.71,119.92-61.73,174.68-11.85.5.45,1.11.78.31.23,15.75-5.39,30.2-12.15,45.4-15.21,48.57-9.79,96.45,12.43,121.15,55.38,3.77,6.55,7.63,8.77,15.17,8.78,45.17.05,79.04,20.35,101.65,59.19,3.1,5.32,6.24,7.07,12.09,6.86,64.1-2.29,117.97,50.39,118.63,113.51.03,2.96,3.14,7.45,5.9,8.59,40.98,16.92,66.45,46.47,74.99,90.25.18.93,1.04,1.72,1.58,2.58v39.29ZM556.29,513.65c27.29-2.07,81.59-5.18,135.66-10.55,62.75-6.23,124.07-20.05,183.47-41.48,51.1-18.43,99.34-42.09,140.84-78.07,7.45-6.46,8.77-13.02,6.29-21.73-9.42-33.06-30.58-53.82-64.19-61.5-14.28-3.27-18.74-9.91-16.92-24.28,3.85-30.36-6.07-55.82-29.75-75.01-18.71-15.17-40.43-21.36-64.7-17.03-14.35,2.56-20.77-.13-24.74-12.02-11.94-35.73-52.13-62.51-93.48-53.93-12.93,2.68-18.1-1.27-23.07-13.44-22.57-55.25-84.06-71.4-130.76-34.34-12.33,9.78-19.71,8.93-29.57-3.4-38.01-47.57-105.67-43.35-137.35,8.55-7.14,11.69-11.31,13.48-24.69,10.55-40.92-8.96-79.61,10.73-95.84,49.55-3.94,9.43-9.99,14-19.68,15.63-30.26,5.09-51.4,22.25-62.99,50.39-4.11,9.97-10.59,14.25-20.6,15.92-33.51,5.58-59.79,30.6-66.34,63.82-2.25,11.44-7.88,16.8-19.24,19.35-33.65,7.56-54.54,28.94-63.31,62.17-2.04,7.74-1.44,14.59,6.11,19.89,8.15,5.72,15.36,12.78,23.47,18.55,54.54,38.83,115.94,62.26,180.11,79.18,93.13,24.54,188.28,32.02,311.24,33.24ZM985.54,560.33c-22.77,9.75-43.14,19.56-64.27,27.32-95.78,35.21-195.73,49.18-296.88,55.4-103.01,6.34-205.81,2.99-308.06-12.03-59.23-8.7-117.75-20.71-174.06-41.48-23.36-8.61-45.97-19.26-68.73-28.9,0-.08-.19.56-.04,1.1.36,1.32.81,2.64,1.36,3.9,39.02,88.69,99.67,157.66,185.93,203.04,62.68,32.98,130.01,49.19,200.2,55.51,74.25,6.68,147.86,3.46,220.59-13.14,99.82-22.79,184.31-70.87,247.64-152.92,22.77-29.5,41.19-61.53,56.31-97.81ZM35.44,424.7c4.9,23.49,9.14,46.05,14.57,68.32,1.41,5.81,5.53,11.86,10.1,15.84,26.11,22.7,57.18,36.61,89.37,48.08,98.11,34.96,200.24,47.71,303.47,53.49,83.02,4.65,165.88,1.61,248.49-8.04,59.11-6.91,117.57-17.21,174.63-34.52,40.28-12.21,79.26-27.15,113.93-51.85,11.2-7.98,18.6-17.48,20.95-31.3,3.37-19.83,7.57-39.53,11.87-61.59-4.19,2.4-6,3.22-7.57,4.37-35.46,26.06-74.44,45.5-115.41,61.09-103.79,39.5-212.2,53.85-322.31,57.34-92.37,2.93-184.44-1.38-275.6-18.17-66.82-12.31-131.95-30.22-192.82-61-24.42-12.35-47.63-27.1-73.67-42.07ZM710.34,838.5c-120.76,30.36-241.69,30.37-362.84-.22v25.93c1.73.81,3.2,1.73,4.8,2.22,42.53,12.98,85.96,21.53,130.24,25.2,69.94,5.78,138.67-1.75,206.28-20.26,23.91-6.55,23.94-6.44,21.96-31.53-.03-.33-.21-.65-.45-1.34Z"/><path class="d" d="M462.98,278.58c.13,11.78-5.29,18.88-15.01,19.66-10.35.83-16.47-5.12-18.14-17.67-3.08-23.09-21.13-35.45-43.56-29.79-13.69,3.45-19.29.61-24.73-12.55-6.3-15.25-20.43-24.36-34.52-22.27-16.45,2.44-27.08,13.76-29.3,31.21-1.62,12.71-7.52,18.65-17.87,18-10.09-.64-15.53-7.88-15.31-20.38.45-25.66,18.8-49.94,44.44-58.81,25.62-8.86,55.25-1.21,71.82,19.79,5.61,7.12,11.03,10.07,20.23,10.14,32.46.21,61.59,30.25,61.95,62.67Z"/><path class="d" d="M712.05,232.09c35.82.2,65.96,30.15,65.24,64.87-.22,10.68-6.26,17.5-15.82,17.86-9.68.36-15.92-5.58-17.28-16.43-2.4-19.18-12.82-30.64-29.89-32.85-14.42-1.87-27.41,7.1-34.44,23.8-4.79,11.36-11.21,14.39-23.78,11.2-23.08-5.85-41.14,6.49-44.13,30.16-1.5,11.84-7.5,17.72-17.57,17.2-9.87-.5-15.56-7.51-15.54-19.14.08-32.9,29.4-63.1,62.43-63.24,8.79-.04,13.94-2.66,19.42-9.63,12.83-16.29,30.5-23.96,51.37-23.79Z"/><path class="d" d="M429.74,347.86c36.64.04,67.02,29.72,66.34,64.84-.21,10.7-6.22,17.53-15.77,17.91-9.68.39-15.97-5.56-17.33-16.39-2.41-19.23-12.77-30.65-29.85-32.9-14.42-1.9-27.47,7.09-34.48,23.75-4.8,11.42-11.19,14.45-23.75,11.26-23.12-5.87-41.18,6.44-44.18,30.1-1.5,11.87-7.46,17.74-17.52,17.26-9.9-.48-15.6-7.46-15.59-19.1.05-33.36,29.67-63.32,63.41-63.36,7.95,0,12.75-2.31,17.73-8.75,12.68-16.43,30.16-24.39,50.99-24.63Z"/><path class="d" d="M595.44,116.35c35.62.02,65.67,28.66,66.05,62.95.13,11.8-5.27,18.89-14.98,19.68-10.38.85-16.68-5.28-18.14-17.63-2.04-17.26-12.81-28.98-29.03-31.59-13.03-2.1-27.99,6.06-33.5,18.96-1.98,4.63-2.76,9.85-3.53,14.89-1.5,9.78-7.97,15.75-17.28,15.41-9.18-.33-15.4-6.93-15.82-16.8-1.51-35.23,29.31-65.88,66.23-65.86Z"/><path class="d" d="M926.16,378.19c.06,11.62-5.58,18.72-15.36,19.32-10.06.62-16.4-5.46-17.72-17-2.23-19.45-16.1-32.89-33.56-32.53-17.44.36-30.36,13.25-32.55,32.44-1.32,11.61-7.57,17.66-17.66,17.09-9.82-.56-15.48-7.61-15.43-19.24.13-34.32,30.12-63.32,65.58-63.42,36.27-.1,66.51,28.62,66.7,63.33Z"/><path class="d" d="M181.63,331.4c36.54-.03,66.96,29.68,66.31,64.76-.2,10.69-6.22,17.52-15.77,17.9-9.69.39-16.05-5.64-17.3-16.38-2.33-19.92-15.39-33.07-32.94-33.16-17.68-.1-30.94,13.02-33.2,32.84-1.29,11.33-7.93,17.47-18.04,16.68-9.4-.73-14.97-7.62-15.04-18.58-.21-34.75,29.95-64.02,65.98-64.05Z"/><path class="d" d="M744.2,460.57c.13,11.77-5.3,18.87-15.02,19.64-10.38.83-16.63-5.28-18.1-17.67-2.21-18.66-16.05-31.95-33.17-31.84-17.35.11-30.7,13.13-32.89,32.09-1.37,11.89-7.26,17.83-17.31,17.46-10.28-.38-15.95-7.53-15.78-19.92.45-34.21,30.6-62.77,66.25-62.75,35.59.02,65.65,28.7,66.02,62.99Z"/><path class="d" d="M430.34,148.92v-31.9h32.08v31.9h-32.08Z"/><path class="d" d="M776.72,215.09h-31.72v-31.9h31.72v31.9Z"/><path class="d" d="M561.89,249.51v31.6h-32.14v-31.6h32.14Z"/><path class="d" d="M892.7,249.18v31.9h-32.08v-31.9h32.08Z"/><path class="d" d="M214.38,265.81v31.72h-31.91v-31.72h31.91Z"/><path class="d" d="M346.75,298.86v31.79h-31.97v-31.79h31.97Z"/><path class="d" d="M743.58,380.82h-31.6v-32.15h31.6v32.15Z"/><path class="d" d="M578,430.24h-31.65v-32.15h31.65v32.15Z"/><path class="d" d="M876.1,414.66v31.79h-31.97v-31.79h31.97Z"/><path class="d" d="M445.64,479.89h-31.6v-32.14h31.6v32.14Z"/></g></svg>