<?xml version="1.0" encoding="UTF-8"?><svg id="b" xmlns="http://www.w3.org/2000/svg" viewBox="0 0 1060.6 1060.6"><defs><style>.d{fill:#f0e51d;}.d,.e{stroke-width:0px;}.e{fill:#224494;}</style></defs><g id="c"><circle class="e" cx="530.3" cy="530.3" r="530.3"/><polygon class="d" points="530.3 107.73 545.74 155.23 595.68 155.23 555.27 184.59 570.71 232.09 530.3 202.73 489.89 232.09 505.33 184.59 464.92 155.23 514.87 155.23 530.3 107.73"/><polygon class="d" points="702.72 155.62 718.15 203.12 768.1 203.12 727.69 232.48 743.12 279.98 702.72 250.63 662.31 279.98 677.74 232.48 637.33 203.12 687.28 203.12 702.72 155.62"/><polygon class="d" points="843.2 291.62 858.64 339.12 908.58 339.12 868.17 368.48 883.61 415.98 843.2 386.62 802.79 415.98 818.23 368.48 777.82 339.12 827.77 339.12 843.2 291.62"/><polygon class="d" points="884.71 468.12 900.14 515.62 950.09 515.62 909.68 544.98 925.12 592.48 884.71 563.12 844.3 592.48 859.73 544.98 819.33 515.62 869.27 515.62 884.71 468.12"/><polygon class="d" points="836.82 644.62 852.25 692.13 902.2 692.13 861.79 721.48 877.22 768.99 836.82 739.63 796.41 768.99 811.84 721.48 771.43 692.13 821.38 692.13 836.82 644.62"/><polygon class="d" points="702.72 778.72 718.15 826.23 768.1 826.23 727.69 855.58 743.12 903.09 702.72 873.73 662.31 903.09 677.74 855.58 637.33 826.23 687.28 826.23 702.72 778.72"/><polygon class="d" points="529.66 823.42 545.1 870.93 595.04 870.93 554.64 900.28 570.07 947.79 529.66 918.43 489.25 947.79 504.69 900.28 464.28 870.93 514.23 870.93 529.66 823.42"/><polygon class="d" points="346.39 778.72 361.83 826.23 411.78 826.23 371.37 855.58 386.8 903.09 346.39 873.73 305.99 903.09 321.42 855.58 281.01 826.23 330.96 826.23 346.39 778.72"/><polygon class="d" points="215.63 651.19 231.07 698.69 281.01 698.69 240.6 728.05 256.04 775.55 215.63 746.19 175.22 775.55 190.66 728.05 150.25 698.69 200.2 698.69 215.63 651.19"/><polygon class="d" points="175.72 468.12 191.16 515.62 241.1 515.62 200.69 544.98 216.13 592.48 175.72 563.12 135.31 592.48 150.75 544.98 110.34 515.62 160.29 515.62 175.72 468.12"/><polygon class="d" points="215.63 291.62 231.07 339.12 281.01 339.12 240.6 368.48 256.04 415.98 215.63 386.62 175.22 415.98 190.66 368.48 150.25 339.12 200.2 339.12 215.63 291.62"/><polygon class="d" points="346.39 155.62 361.83 203.12 411.78 203.12 371.37 232.48 386.8 279.98 346.39 250.63 305.99 279.98 321.42 232.48 281.01 203.12 330.96 203.12 346.39 155.62"/></g></svg>