<?xml version="1.0" encoding="UTF-8"?><svg id="b" xmlns="http://www.w3.org/2000/svg" viewBox="0 0 1060.6 1060.6"><defs><style>.d{fill:#20305d;}.d,.e{stroke-width:0px;}.e{fill:#d4ecf3;}</style></defs><g id="c"><circle class="e" cx="530.3" cy="530.3" r="530.3"/><path class="d" d="M917.02,408.51v39.11c-.47,1.39-1.16,2.75-1.37,4.17-11.15,77.43-52.76,131.92-123.91,163.87-5.5,2.47-7.27,4.94-7.25,10.86.21,86.74.15,173.49.14,260.24,0,17.13-8.63,25.68-25.91,25.68-151.18,0-302.35,0-453.53,0-17.62,0-25.99-8.49-25.99-26.34,0-86.49-.06-172.99.12-259.48.01-5.78-1.37-8.56-7.15-10.92-104.57-42.63-154-165.47-108.69-268.75,31.26-71.24,105.06-125.53,194.66-121.78,6.95.29,11.21-1.63,15.64-7.2,25.83-32.43,58.65-55.02,98.5-66.74,13.11-3.86,26.71-6.04,40.08-8.99,13.04,0,26.07,0,39.11,0,1.15.44,2.28,1.13,3.46,1.27,56.81,6.72,102.55,33.01,138.09,77.64,1.77,2.22,5.7,3.59,8.73,3.79,13.72.91,27.76-.34,41.17,2.05,84.26,15,139.84,63.58,166.22,145.02,3.81,11.78,5.3,24.31,7.86,36.49ZM324.31,776.54h415.21c0-3.27,0-6,0-8.73,0-53.15,0-106.29,0-159.44,0-18.92,3.74-24.03,21.78-29.79,64.08-20.45,108.25-78.82,110.5-146.03,2.26-67.56-41.69-131.44-105.57-153.35-14.37-4.93-29.06-8.18-44.95-8.38.54,1.72.8,2.64,1.12,3.54,8.11,22.55,12.84,45.69,12.59,69.75-.15,13.94-9.42,23.76-22.56,23.77-12.86,0-21.94-9.51-22.65-23-.47-8.98-1.25-18-2.73-26.86-15.2-90.6-106.99-149.24-195.56-125.08-69.52,18.96-115.44,78.33-117.53,151.96-.38,13.48-9.73,22.99-22.6,22.98-12.85-.01-22.96-9.75-22.34-23.04.63-13.69,1.96-27.44,4.25-40.94,1.89-11.11,5.64-21.9,8.78-33.64-7.01.93-13.45,1.61-19.82,2.66-86.46,14.34-146.21,101.81-126.7,187.14,13.69,59.9,50.38,99.91,109.18,119.01,14.57,4.73,19.59,11.51,19.59,27.03,0,36.6,0,73.2,0,109.8,0,20.03,0,40.06,0,60.63ZM324.65,866.8h414.52v-44.21h-414.52v44.21Z"/><path class="d" d="M640.17,596.52c-10.2-1.48-18.47-7.02-21.85-15.59-3.6-9.11-1.41-17.94,5.86-25.38,8.39-8.58,17.22-16.84,24.69-26.17,15.54-19.41,25.59-41.56,30.37-66.08,2.67-13.7,13.71-21.3,26.71-18.81,12.56,2.4,20.34,14.52,17.73,27.69-9.24,46.62-32.69,84.97-68.19,116.1-4.25,3.72-10.17,5.53-15.32,8.23Z"/><path class="d" d="M422.46,595.68c-3.36-1.6-8.96-2.98-12.86-6.35-36.6-31.53-60.51-70.72-69.72-118.41-2.36-12.2,5.92-24.06,17.81-26.35,12.36-2.38,24.36,4.9,26.65,17.16,6.98,37.43,26.11,67.57,54.04,92.79,14.32,12.93,10.31,33.95-7.2,39.52-2.11.67-4.37.84-8.72,1.65Z"/><path class="d" d="M554.47,512.41c0,19.54.04,39.08-.01,58.62-.04,14.08-9.21,23.89-22.28,24-13.46.11-22.79-9.73-22.81-24.22-.03-39.08-.04-78.16,0-117.24.01-14.08,9.19-23.88,22.27-23.98,13.48-.1,22.78,9.71,22.81,24.2.04,19.54.01,39.08.01,58.62Z"/></g></svg>