<?xml version="1.0" encoding="UTF-8"?><svg id="b" xmlns="http://www.w3.org/2000/svg" viewBox="0 0 1058.9 834.33"><defs><style>.d{fill:#fff;stroke-width:0px;}</style></defs><g id="c"><path class="d" d="M1058.9,785.11c-1.46,3.36-2.98,6.69-4.37,10.07-10.13,24.73-32.89,39.11-62.36,39.12-151.6.03-303.2.01-454.81.01-4.48,0-8.96.02-13.44,0-22.75-.13-31.64-14.2-21.96-34.78,16.57-35.22-.64-76.3-36.97-86.61-25.42-7.21-48-1.23-65.29,19.23-16.64,19.69-18.99,41.99-8.86,65.63.95,2.21,2.3,4.24,3.2,6.47,5.68,14.02-2.21,27.72-17.23,29.86-2.37.34-4.81.21-7.22.21-101.3,0-202.6.06-303.89-.02-32.57-.03-56.91-18.74-64.1-49.13-1.09-4.62-1.32-9.53-1.33-14.31-.09-53.41-.07-106.81-.05-160.22,0-17.1,6.64-24.15,23.97-25.64,32.49-2.79,55.62-25.52,58.51-57.49,2.6-28.69-18.14-56.47-47.86-63.83-3.96-.98-8.15-1.08-12.24-1.43-14.93-1.27-22.36-9.09-22.37-24.03-.05-52.72.28-105.44-.22-158.15-.13-13.46,5.69-20.91,17.39-26.03,77.13-33.73,154.16-67.68,231.21-101.61,101.57-44.73,203.25-89.22,304.61-134.41C591.21,1.06,630.52-2.83,671.23,1.81c67.45,7.69,132.46,23.97,192.98,55.64,68.22,35.7,127.85,81.54,167.9,148.66,11.45,19.18,17.99,41.29,26.79,62.06v516.95ZM548.97,791.88h11.78c142.98,0,285.96,0,428.94,0,21.75,0,27.86-6.28,27.86-28.51,0-151.59,0-303.19,0-454.78,0-3.68,0-7.35,0-11.2H41.55c0,40.25-.14,79.8.33,119.36.03,2.42,4.43,6.06,7.45,6.99,44.67,13.72,74.81,53.37,74.91,99.1.1,46.83-29.3,86.89-74.44,100.16-6.87,2.02-8.42,4.75-8.39,11.21.23,43.75.1,87.51.13,131.27.02,19.66,6.87,26.41,26.83,26.42,88.55.02,177.09.02,265.64-.01,3.57,0,7.14-.35,10.67-.53-5.55-45.55,8.16-82.02,46.12-106.43,36.65-23.56,75.32-23.38,111.87.06,37.9,24.31,51.91,60.76,46.29,106.91ZM1010.89,253.84c-6.22-11.47-10.85-21.41-16.7-30.58-31.11-48.71-74.15-84.73-123.08-114.24-59.56-35.92-124.55-55.68-193.26-64.13-38.04-4.68-74.82-3.53-111.09,12.7-132.34,59.22-265.25,117.16-397.93,175.6-14.23,6.27-28.39,12.68-42.59,19.02l.57,1.63h884.09Z"/><path class="d" d="M591.6,606.21c.02-57.24,47-104.11,103.81-103.57,57.47.55,103.07,46.81,102.93,104.44-.13,56.57-46.68,103.06-103.29,103.15-56.95.08-103.48-46.69-103.46-104.01ZM694.56,667.79c34.15.17,62.1-27.17,62.4-61.03.3-33.75-27.56-61.7-61.6-61.81-34.25-.1-62.09,27.11-62.39,61.01-.31,33.7,27.56,61.66,61.6,61.83Z"/><path class="d" d="M384.78,462.02c-.07,45.52-37.44,82.87-82.82,82.78-45.84-.09-82.71-37.63-82.57-84.06.14-44.91,37.02-81.75,82.29-82.17,45.73-.43,83.17,37.17,83.1,83.45ZM301.41,502.36c23.07.26,41.9-17.94,42-40.6.11-22.25-18.24-40.7-40.65-40.88-23.18-.19-41.87,17.86-42,40.57-.13,22.21,18.2,40.67,40.65,40.92Z"/><path class="d" d="M757.02,399.14c.08-33.91,27.7-61.62,61.7-61.92,34.12-.3,62.33,27.9,62.33,62.34,0,34.49-28.08,62.7-62.23,62.53-34.23-.17-61.88-28.33-61.8-62.95ZM818.68,379.56c-11.3.14-20.46,9.38-20.21,20.37.26,11.19,9.41,19.79,20.9,19.65,11.33-.14,20.47-9.32,20.22-20.34-.25-11.15-9.46-19.82-20.92-19.67Z"/><path class="d" d="M976.17,669.11c0,19.62.06,39.24-.02,58.86-.06,13.74-8.65,23.45-20.57,23.51-11.91.05-20.69-9.69-20.71-23.35-.07-39.93-.07-79.86,0-119.79.03-13.61,8.98-23.16,21.07-22.86,11.76.29,20.13,9.55,20.2,22.71.11,20.31.03,40.62.03,60.93Z"/><path class="d" d="M550.21,462.17c-.14,22.65-19.14,41.49-41.61,41.27-22.99-.23-41.34-19.38-41.06-42.84.26-22.14,18.78-40.47,41.09-40.66,23.01-.2,41.73,18.82,41.58,42.24Z"/><path class="d" d="M260.72,669.12c-.19,22.59-19.38,41.46-41.78,41.1-23.05-.37-41.22-19.49-40.89-43.02.31-22.09,19.01-40.44,41.26-40.49,23.05-.05,41.61,18.95,41.41,42.41Z"/><path class="d" d="M976.15,523.16c.21,11.5-9.13,21.37-20.41,21.54-11.2.17-20.88-9.59-20.89-21.04,0-11.21,8.76-20.41,19.88-20.89,11.36-.49,21.2,8.88,21.41,20.4Z"/></g></svg>