<?xml version="1.0" encoding="UTF-8"?><svg id="b" xmlns="http://www.w3.org/2000/svg" viewBox="0 0 893.63 1059.55"><defs><style>.d{fill:#fff;stroke-width:0px;}</style></defs><g id="c"><path class="d" d="M670.2,0c4.23,6.22,10.47,11.93,12.21,18.78,2.64,10.4-2.87,16.72-15.12,22.6-49.5,23.78-90.4,57.77-120.75,103.67-27.5,41.6-43.22,87.26-43.91,137.55-.03,2.03.31,4.07.48,6.13,24.15-4.7,47.93-9.87,71.9-13.9,89.77-15.1,165.01,13.49,227.1,78.14,50.03,52.08,76.66,115.55,87.39,186.51,12.68,83.81-5.12,162.73-36.85,239.5-30.23,73.14-70.32,140.18-125.43,197.53-31.81,33.11-67.26,61.25-111.77,75.5-38.11,12.19-76.68,8.3-113.96-2.35-37.04-10.58-72.54-10.68-109.42.25-77.73,23.03-144.97,2.29-203.49-51.98-73.03-67.74-122.26-150.85-157.02-243.13C10.44,698.7-2.57,640.83.43,580.37c4.86-97.98,38.05-183.17,113.92-248.63,8.84-7.63,18.38-14.52,28.11-20.99,9.38-6.24,19.42-11.49,29.77-17.52-17.8-29.89-28.6-61.91-34.35-95.64-8.4-49.29-7.97-98.7-.76-148.07,1.44-9.82,7.64-16.6,17.5-17.96,68.61-9.51,136.6-8.83,202.72,14.98,61.4,22.12,103.14,64.21,125.68,126.93,1.76-2.8,3.13-4.52,4.03-6.46,34.69-75.42,90.68-129.45,165.32-164.79,1.2-.57,2.24-1.46,3.36-2.2,4.82,0,9.65,0,14.47,0ZM618.17,313.11c3.47,2.88,4.92,4.22,6.5,5.37,36.56,26.58,65.56,59.93,86.92,99.59,43.55,80.86,54.15,166.83,35.57,256.12-6.4,30.78-17.16,60.71-26.78,90.76-4.07,12.71-15.95,17.76-27.14,13.54-10.7-4.04-15.72-15.13-12.12-27.28,1.27-4.27,3.09-8.38,4.65-12.57,28.6-77.01,38.4-155.37,15.46-235.65-21.25-74.39-62.94-133.1-132.52-170.08-14.5-7.71-28.77-12.02-44.88-5.16-4.63,1.98-10.35,1.4-15.01,3.34-3.06,1.28-6.72,4.65-7.32,7.64-1.75,8.73-2.09,17.74-3.01,26.64-2.07,20.04-6.8,24.83-26.53,27.28-47.08,5.85-94.12,6.25-140.93-2.12-47.15-8.43-90.83-24.92-126.63-58.11-4.46-4.13-7.85-3.89-12.7-1.54-31.17,15.07-58.17,35.65-80.07,62.36-61.57,75.08-80.55,162.39-64.87,255.94,18.94,112.95,70.67,211.21,147.68,295.95,9.93,10.92,21.33,20.54,32.38,30.4,46.87,41.84,100.71,50.85,159.76,32.73,40.38-12.39,80.31-12.22,120.78-.03,54.69,16.49,106.18,11.47,151.59-26.43,11.1-9.26,22.46-18.37,32.55-28.66,61.82-63.04,104.17-138.04,133.97-220.56,23.41-64.81,33.79-131.01,20.6-199.66-13.15-68.44-43-127.48-97.5-172.35-36.97-30.44-78.94-48.26-130.38-47.46ZM429.85,353.92c-4.33-4.52-6.63-7.02-9.04-9.43-47.5-47.47-95.03-94.92-142.5-142.43-3.14-3.15-6.37-6.42-8.65-10.18-4.79-7.93-3.06-18.11,3.53-24.65,6.55-6.5,16.85-8.17,24.71-3.36,3.75,2.3,6.98,5.56,10.13,8.71,47.3,47.19,94.55,94.43,141.83,141.64,2.55,2.55,5.27,4.92,8.76,8.16,2.94-46.59.65-91.12-14.7-134.34-18.38-51.76-53.29-86.36-105.43-103.84-30.27-10.15-61.4-15.19-93.14-15.84-22.87-.46-45.78.83-68.59,1.34-5.28,47.67-4.58,92.96,5.87,137.6,11.45,48.92,33.98,90.87,79.93,116.14,51.54,28.34,107.53,32.76,167.31,30.48Z"/><path class="d" d="M659.75,866.38c-11.92.17-20.9-8.66-20.91-20.55-.01-11.53,8.39-20.34,19.75-20.73,11.58-.4,21.37,8.63,21.77,20.07.39,11.27-9.11,21.04-20.61,21.21Z"/></g></svg>