<?xml version="1.0" encoding="UTF-8"?><svg id="b" xmlns="http://www.w3.org/2000/svg" viewBox="0 0 992.85 893.82"><defs><style>.d{fill:#fff;stroke-width:0px;}</style></defs><g id="c"><path class="d" d="M658.36,675.22c-61.05-28.77-121.51-30.79-182.43-3.74-14.01,6.22-27.8,11.5-43.63,9.44-33.9-4.42-51.05-32.88-38.58-64.63.61-1.56,1.26-3.12,3.09-7.68-13.4.72-25.25.39-36.76,2.2-19.76,3.11-35.47-3.42-50-16.3-9.68-8.58-20.13-16.72-31.39-22.99-18.63-10.37-28.94-25.22-32.53-46.13-1.89-10.99-5.46-22.09-10.42-32.08-9.97-20.06-10.16-39.08-.26-59.27,5.2-10.6,8.58-22.42,10.85-34.07,3.96-20.42,14.09-35.59,32.95-44.54,5.51-2.62,6.94-5.23,5.14-11.86-13.46-49.75,22.16-95.51,73.74-94.98,7.01.07,10.6-1.59,13.91-8.36,19.99-40.75,70.27-54.1,108.03-28.79,5.68,3.81,9.76,4.04,15.78,1.4,103.54-45.24,220.62,22.55,231.72,134.8,4.96,50.23-10.69,94.38-45.42,131.38-2.33,2.48-5.29,4.37-9.49,7.78,33.54,10.86,66.07,18.62,91.3,41.75,11.45-21.22,15.37-69.77,10.08-128.59,10.42-1.8,20.97-3.61,31.48-5.42,27.29,132.24-48.22,299.93-214.27,352.08-170.57,53.58-349.3-43.82-397.99-216.13-47.59-168.43,55.57-346.35,227.02-388.67,178.25-44,336.61,68.66,377.93,217.94-10.05,2.97-20.13,5.94-30.82,9.09-35.29-103.22-103.63-171.49-210.28-196.15-78.18-18.08-152.03-3.14-218.49,42.2-136.71,93.27-164.25,280.2-59.5,409.25,102.44,126.21,275.65,129.52,379.24,51.05ZM423.2,355.93c.35-.4-.44.27-.94,1.12-25.56,42.44-70.34,52.59-111.28,25.28-1.81-1.21-4.3-2.55-6.22-2.24-11.14,1.8-21.89,13.47-25.06,24.65-4.46,15.74-9.21,31.47-15.18,46.68-3.43,8.75-3.07,16.01.23,24.6,5.75,14.93,10.56,30.28,14.79,45.72,2.43,8.88,6.8,14.92,14.63,19.96,13.49,8.67,26.49,18.24,38.94,28.36,6.6,5.36,12.99,8.27,21.51,7.43,11.26-1.11,22.59-2,33.9-2.08,7.85-.06,15.71,1.91,23.58,2.05,11.17.21,16.5-6.57,18.72-17.14,2.07-9.79,4.85-21.14,11.37-27.89,9.96-10.32,23.45-17.21,35.34-25.7,3.14-2.24,6.91-4.45,8.66-7.63,3.95-7.18,6.45-15.15,10.24-22.44,4.67-8.99,3.87-17.17.16-26.5-5.79-14.54-9.37-29.95-14.93-44.59-2.53-6.66-6.26-14.07-11.69-18.2-14.64-11.13-30.49-20.67-46.78-31.45ZM495.67,363.14c5.35-52.62,48.54-71,80.46-63.87,38.98,8.7,61.63,46.98,50.03,84.31-5.57,17.92-16.79,31.59-33.76,39.83-25.46,12.36-49.7,8.32-73.53-7.18,9.74,23.47,22.92,45.77,10.33,69.46,29.89-1.9,58.94-3.53,87.96-5.76,5.86-.45,12.49-1.78,17.17-5.01,44.7-30.79,65.5-73.28,58.99-127.55-10.09-84.09-97.23-136.69-176.41-107.22-6.35,2.36-9.03,4.34-6.72,12.47,10.26,35.99-6.14,71.39-39.69,88.2-2.03,1.02-3.98,2.17-7.02,3.83,11.32,6.51,21.65,12.44,32.17,18.49ZM727.45,576.62c4.69-2.75,12.74-4.77,14.09-8.96,1.58-4.89-1.88-12.08-4.69-17.47-1.71-3.28-6.02-5.66-9.66-7.4-82.12-39.36-164.41-39.46-246.47-.06-6.03,2.9-11.03,9.08-15.03,14.78-4.82,6.88-1.25,12.36,5.78,15.65,9.45,4.43,18.12,1.06,26.7-2.92,70.42-32.67,140.8-32.53,211.24.03,5.22,2.42,10.9,3.86,18.04,6.34ZM562.8,617.31c16.64,2.29,33.72,2.98,49.83,7.27,21.44,5.71,42.12,14.24,63.14,21.51,10.97,3.8,20.95.97,25.43-7.12,3.12-5.63-1.36-15.4-10.95-20.9-8.6-4.93-17.65-9.38-26.98-12.67-52.81-18.62-105.49-30.92-159.33-1.76-9.39,5.08-22.85,4.78-34.13,3.74-18.51-1.71-31.96,6.57-42.92,19.03-8.66,9.85-2.92,20.9,10.41,20.87,7.22-.02,14.91-2.26,21.56-5.3,33-15.11,67.52-22.85,103.94-24.68ZM479.93,272.72c-.38-22.43-20.06-41.42-42.26-40.81-22.01.61-40.75,20.04-40.26,41.74.5,22.18,19.32,40.8,41.22,40.78,22.45-.02,41.68-19.45,41.3-41.72ZM395.11,334.25c-17.13-15.3-25.3-26.15-28.39-42.54-1.91-10.12-7.35-11.04-15.31-9.82-21.13,3.25-36.51,20.3-36.71,40.65-.2,20.25,15,37.54,36.15,41.13,18.55,3.15,36.93-8.96,44.25-29.41ZM529.74,364.26c-.05,17.39,15.72,33.08,33.09,32.94,17.64-.15,32.97-15.57,32.91-33.09-.06-17.54-15.61-33.02-33.06-32.91-17.65.1-32.89,15.4-32.93,33.07Z"/><path class="d" d="M827.35,1.02v163.84h49.42V.87h32.86v164.13h49.78V1.09h33.43v10.79c0,86.14.01,172.29,0,258.43,0,29.03-14,49.29-41.49,58.36-6.68,2.2-6.26,6.05-6.12,10.88,1.67,55.44,3.31,110.88,5.02,166.32,1.69,54.75,3.47,109.5,5.17,164.25.07,2.34-.2,4.68-.35,7.85h-33.2c-3.48-115.21-6.97-230.39-10.47-346.21h-35.38c-.26,3.3-.67,6.63-.77,9.98-2.93,100.56-5.74,201.11-8.75,301.67-1.79,59.57-3.9,119.14-5.82,178.71-.56,17.34,7.05,30.29,20.82,35.8,22.58,9.03,45.66-8.02,45.02-33.71-.75-30.31-2.11-60.6-3.1-90.9-.22-6.79-.03-13.6-.03-21.22h32.69c.32,2.94.86,5.96.95,8.98.95,35.13,2.23,70.25,2.61,105.39.41,37.97-28.73,67.1-66.16,67.07-37.34-.02-66.78-29.25-65.88-67.29,1.99-84.38,4.82-168.74,7.34-253.11,1.61-53.72,3.3-107.44,4.92-161.16.74-24.45,1.3-48.9,2.2-73.35.2-5.57-1.12-8.23-7.12-10.15-25.44-8.16-40.56-29.48-40.57-55.98-.04-87.52-.02-175.04-.02-262.57V1.02h32.99ZM827.44,199.23c0,24.96-.28,48.71.1,72.46.25,15.71,10.34,25.96,26.01,26.21,26.52.42,53.05.38,79.57.03,16.25-.22,26.25-10.42,26.57-26.75.35-17.9.09-35.82.09-53.73,0-6.05,0-12.11,0-18.22h-132.34Z"/><path class="d" d="M41.74,463.76h34.33c0,21.52.5,42.39-.09,63.23-2.32,81.97-4.97,163.92-7.54,245.88-.53,16.87-1.36,33.74-1.8,50.62-.54,21.13,14.07,37.19,33.27,36.91,18.98-.28,33.24-15.93,32.61-36.55-3.08-99.52-6.42-199.04-9.49-298.56-1.78-57.51-3.25-115.03-4.81-172.55-.19-7.13-.03-14.27-.03-22.46h-36.28c-1.08,32.59-2.18,66.02-3.3,99.9h-32.39c-.18-3.4-.54-6.34-.47-9.27.82-34.79,1.93-69.58,2.34-104.37.06-4.88-2-10.8-5.11-14.55-22.49-27.07-34.21-58.7-39.41-92.84C-4.02,159.17-.13,110.29,21.22,63.76c8.11-17.67,18.9-33.63,34.23-46,30.58-24.67,67.72-23.65,96.54,3.1,25.46,23.63,38.53,54.11,45.43,87.37,11.02,53.13,9.15,105.63-13.51,155.62-7.11,15.68-19.15,29.09-28.58,43.77-2.21,3.44-4.34,7.84-4.25,11.74,1.38,60.28,3.03,120.55,4.84,180.82,1.68,55.79,3.72,111.57,5.41,167.36,1.59,52.69,3.28,105.38,4.26,158.08.65,34.99-24,63.55-57.05,67.65-35.1,4.35-67.47-17.65-73.57-52.96-3.06-17.71-1.21-36.38-.68-54.59,2.31-80.24,5.14-160.47,7.33-240.72.73-26.79.12-53.62.12-81.24ZM171.24,165.81c-1.84-15.68-2.78-31.52-5.73-46.99-4.88-25.58-13.64-49.79-32.04-69.17-20.36-21.44-43.67-21.59-63.27.5-8.08,9.11-15.33,19.79-19.93,31-22.49,54.86-22.48,110.41-1.62,165.79,6.11,16.22,15.22,30.89,29.39,41.63,16.26,12.32,32.65,12.99,47.91-.5,9.31-8.23,17.44-18.67,23.5-29.57,15.9-28.61,20.4-60.2,21.79-92.68Z"/><path class="d" d="M186.39,720.29c8.3-7.33,16.24-14.34,24.75-21.86,77,83.77,172.03,128.33,285.18,128.44,113.25.1,208.34-44.37,285.76-128.48,8.44,7.46,16.56,14.63,24.69,21.81-162.95,185.34-453.34,188.27-620.37.09Z"/><path class="d" d="M242.72,163.32c-7.07-7.9-14.14-15.8-21.21-23.69,137.52-132.62,387.74-150.17,550.59-.48-7.2,8.07-14.41,16.16-21.63,24.25-143.43-127.09-360.16-130.31-507.76-.08Z"/><path class="d" d="M437.9,477.54c-17.04-11.37-33.2-22.15-49.97-33.34,6.37-9.58,12.19-18.33,18.55-27.91,16.7,11.12,32.82,21.87,49.86,33.22-6.15,9.35-11.9,18.08-18.45,28.03Z"/><path class="d" d="M298.72,474.92c5.58-16.82,10.81-32.62,16.52-49.82,10.72,3.48,20.84,6.78,31.82,10.35-5.58,16.83-10.82,32.64-16.52,49.83-10.71-3.49-20.84-6.78-31.82-10.35Z"/><path class="d" d="M408.76,497.23c3.61,10.87,6.91,20.81,10.53,31.74-16.94,5.63-33.01,10.97-49.88,16.58-3.63-10.93-6.93-20.86-10.53-31.71,16.94-5.64,33.01-10.99,49.88-16.61Z"/></g></svg>