<?xml version="1.0" encoding="UTF-8"?><svg id="b" xmlns="http://www.w3.org/2000/svg" viewBox="0 0 1058.94 1037.47"><defs><style>.d{fill:#fff;stroke-width:0px;}</style></defs><g id="c"><path class="d" d="M1058.94,630.17q-9.21,15.89-41.89,19.62c-5.39,25.23-9.23,50.77-16.37,75.36-40.55,139.77-126.89,241.23-258.08,304.14-9.9,4.75-21.7,6.62-32.79,7.49-15.75,1.24-31.68.46-47.53.26-12.09-.15-18.83-6.01-18.92-15.83-.09-9.87,6.55-15.87,18.63-16.13,13.09-.28,26.22-.67,39.27.08,14.28.82,27-2.82,39.5-9.38,130.86-68.78,210.69-175.58,239.26-320.62,1.58-8.03,2.15-16.26,3.31-25.3H101.9c3.5,18.61,5.8,36.94,10.47,54.64,35.42,134.21,115.24,232.54,239.82,294.02,8.26,4.07,18.34,6.14,27.6,6.21,65.81.52,131.64.27,197.45.29,3.44,0,6.95-.22,10.31.38,8.8,1.56,14.49,6.41,14.33,15.97-.16,9.61-6.22,14.06-14.92,15.52-3.02.51-6.19.2-9.29.2-65.47,0-130.95-.07-196.42.06-14.72.03-28.51-2.79-41.78-9.45-146.46-73.6-235.25-190.54-264.98-351.97-1.55-8.44-2.77-16.95-4.37-26.88-6.13,0-12.23.29-18.3-.06-14.23-.82-24.28-11.14-24.62-25.42-.27-11.71-.11-23.43-.07-35.15.07-18.99,10.07-29.49,29.12-29.78,21.02-.32,42.07-.69,63.05.16,11.18.45,18.51-2.27,20.49-12.88-21.19-4.23-42.81-7.34-63.73-13.04-24.55-6.69-46.75-18.49-62.9-39.15-18.22-23.32-17.47-51.07,1.78-73.7,16.45-19.34,38.4-29.66,61.87-37.41,3.18-1.05,6.41-1.97,9.14-2.81-11.85-15.4-24.41-30.05-35.06-45.97-14.87-22.23-25.05-46.52-26.53-73.83-2.36-43.45,29.38-71.73,72.4-65.04,39.31,6.12,71.29,25.9,100.3,51.7,3.09,2.75,6.08,5.61,9.15,8.37.49.44,1.19.64,2.85,1.49,1.45-4.12,2.91-8.08,4.24-12.08,7.37-22.17,17.53-42.66,35.47-58.36,23.75-20.79,52.84-21.3,76.85-.83,24.8,21.15,35.77,49.98,42.37,80.69,3.08,14.33,4.32,29.05,6.29,42.86,13.11-4.03,26.01-8.04,38.95-11.91,1.94-.58,4.35-1.22,6.1-.59,14.82,5.31,23.62-4.26,34.27-11.97,42.41-30.73,87.77-34.58,135.31-12.26,2.98,1.4,6.57,1.52,9.87,2.23-1.31-3.42-1.86-7.45-4.03-10.17-59.26-74.04-58.18-179.63,2.75-251.31,13.49-15.86,28.89-16.95,43.44-2.43,79.02,78.87,157.96,157.83,236.84,236.85,14.39,14.42,13.96,31.21-2.27,43.43-15.76,11.87-32.78,22.09-49.48,33.19,24.39-1.43,47.88,3.59,69.47,15.78,28.41,16.04,48.5,39.44,58.72,70.51,2.57,7.82,6.2,9.53,13.83,9.6,11.28.1,22.55,1.96,33.8,3.27,9.67,1.12,14,7.25,15.71,16.42,6.9,36.91,2.22,72.56-11.06,107.35-1.31,3.43-2.66,6.84-4.41,11.33,21.21,1.91,44.51-5.69,56.84,18.47v53.76ZM58.56,617.1h968.66v-26.64h-14.04c-190.54,0-381.08,0-571.62,0-34.8,0-69.6.09-104.4-.05-12.21-.05-20.05-6.79-19.82-16.35.22-9.26,7.7-15.4,19.43-15.65,8.78-.18,17.57-.04,29.41-.04-10.65-10.56-19.42-18.64-27.43-27.42-4.98-5.46-9.9-6.71-17.21-5.45-29.46,5.05-59.02,9.61-88.63,13.71-9.91,1.37-16.65-4.54-17.56-13.19-.94-8.93,4.23-15.85,13.65-17.59,9.12-1.68,18.33-2.88,27.49-4.35,15.11-2.42,30.21-4.89,48.32-7.82-11.02-10.66-21.29-18.53-28.89-28.44-11.24-14.68-24.02-16.56-41.24-12.72-24.43,5.44-49.45,8.36-74.32,11.62-10.03,1.32-16.59-4.52-17.46-13.26-.89-9.02,4.18-15.72,13.68-17.48,8.78-1.63,17.64-2.83,26.46-4.25,15.47-2.49,30.93-5.01,43.92-7.11-57.12-57.11-114.56-114.54-171.13-171.11-1.44,19.07,6.62,37.57,16.68,55.38,14.77,26.18,34.94,47.7,58.59,66.02,6.38,4.95,9.74,10.81,7.52,18.72-2.11,7.51-7.88,10.12-15.39,11.49-14.83,2.71-30.2,4.73-43.96,10.39-13.99,5.75-27.75,13.93-39,23.97-12.93,11.53-12,25.92.61,37.97,7.57,7.24,16.55,13.7,26.01,18.13,31.9,14.95,65.87,18.92,100.72,15.66,9.35-.88,18.33-1.72,23.31,8.21,5.05,10.06-1.12,16.76-7.8,23.32-4.25,4.17-7.83,9.02-13.44,15.58,6.56,0,10.22,0,13.89,0,24.81,0,49.62-.15,74.42.08,11.01.1,18.25,6.48,18.6,15.41.36,9.21-7.27,16.05-18.59,16.57-2.75.13-5.51.03-8.27.03-59.61,0-119.22,0-178.83,0-3.99,0-7.98,0-12.35,0v26.64ZM415.29,559.09c.66-.77,1.31-1.54,1.97-2.31-2.41-8.92-4.63-17.89-7.26-26.74-4.99-16.8-2.32-31.88,6.27-47.42,9.91-17.93,18.51-36.85,25.3-56.18,8.17-23.26,10.82-47.69,5.13-72.17-5.75-24.74-23.45-33.44-45.77-21.33-11.6,6.29-21.55,15.72-31.98,24.06-5.68,4.54-11.19,8.01-18.72,4.5-7.7-3.59-9.62-9.78-9.32-17.77.53-14.1,1.35-28.3.38-42.34-2.03-29.46-8.24-57.96-26.24-82.35-16.88-22.86-36.83-22.97-53.93-.45-15.65,20.62-22.15,44.74-25.25,69.94-1.1,8.92-2.61,17.59-12.57,20.48-9.58,2.78-14.97-3.57-20.49-10.33-26.34-32.29-56.96-58.9-98.23-70.26-7.51-2.07-15.53-2.28-21.85-3.14,57.77,57.77,115.25,115.25,171.94,171.94,3.31-21.32,6.9-44.76,10.6-68.18,1.79-11.29,9.51-17.88,18.68-16.21,9.56,1.75,14.23,9.66,12.43,21.16-4.67,29.88-9.38,59.75-13.95,89.65-.34,2.19-.62,5.42.6,6.66,14.09,14.32,28.47,28.35,43.54,43.21,3.82-24.61,7.42-47.7,10.99-70.79,1.91-12.33,8.97-18.87,18.75-17.31,9.99,1.6,14.4,9.53,12.45,21.95-4.64,29.54-9.32,59.07-13.57,88.66-.44,3.06.95,7.44,3.09,9.66,15.81,16.34,31.94,32.37,48.19,48.28,2.36,2.31,5.86,3.44,8.83,5.11ZM924.79,421.97c-.47-1.65-.88-3.64-1.6-5.52-24.77-64.51-107.77-82.3-157.55-33.79-12.96,12.63-19.23,12.49-31.64-.71-47.34-50.36-129.85-36.75-158.47,26.15-7.53,16.55-12.62,18.51-29.64,11.55-20.12-8.22-40.83-9.27-61.67-3.83-3.6.94-7.94,5.34-8.93,8.97-7.31,26.72-18.22,51.73-32.1,75.69-3.03,5.23-2.89,12.77-2.77,19.22.09,5,2.4,9.95,3.74,14.92,6.43,23.76,6.45,23.08,31.24,24.06,10.74.42,14.4-3.1,17.13-13.15,34.27-126.05,182.98-182.89,292.28-111.58,15.98,10.42,29.98,23.89,44.72,35.8,14.19-8.84,28.74-19.39,44.59-27.35,16.09-8.09,33.47-13.63,50.66-20.43ZM837.42,557.84c-11.28-57.27-70.19-125.28-159.93-123.24-75.83,1.72-149.68,61.79-154.48,122.89h54.5c-4.73-3.25-9.18-4.7-10.52-7.59-2.41-5.17-5.31-12.1-3.6-16.63,1.72-4.55,8.58-9.55,13.59-10.03,16.82-1.59,33.35,17.82,30.5,34.39h145.18c-3.42-15.37-1.89-18.8,11.46-26.55,3.86-2.24,7.69-4.57,11.71-6.51,8.11-3.92,14.85-1.52,19.86,5.45,4.92,6.85,3.23,15.35-3.81,21.05-2.51,2.03-5.29,3.73-9.65,6.77h55.19ZM480.83,383.09c10.97-.89,20.55-2.5,30.07-2.22,9.91.29,20.09,1.28,29.54,4.06,7.88,2.32,11.32.54,15.52-6.1,30.03-47.49,86.9-70.1,140.88-54.09,19.3,5.72,36.93,17.06,55.94,26.13,8.4-4.77,18.4-11.73,29.4-16.26,8.62-3.55,8.69-7.6,5.56-14.72-14.67-33.39-39.31-54.67-75.69-59.8-39.75-5.6-71.46,9.19-94.64,41.88-10.09,14.24-16.23,15.59-30.51,5.58-22.89-16.04-48.19-21.58-75.47-16.14-18.39,3.67-34.72,11.87-48.04,25.89,14.61,19.89,17.26,42.31,17.44,65.76ZM662.9,77.53c-5.07,11.29-10.3,21.9-14.62,32.88-4.56,11.6-11.19,16.44-20.46,13.56-9.77-3.04-13.93-11.52-9.29-23.29,6.22-15.78,13.92-30.98,19.97-44.22-5.86-7.09-11.9-14.38-17.97-21.73-56.68,66.7-44.72,166.91,4.87,214.47,8.35-4.53,16.65-9.04,25.53-13.87-2.88-3.51-5.64-6.15-7.54-9.3-7.42-12.31-15.31-24.42-21.59-37.3-4.57-9.37-.56-18.08,7.72-21.6,8.47-3.61,16.23-.19,21.03,9.33,1.08,2.14,1.95,4.4,2.93,6.59,7.2,16.01,17.61,29.55,31.95,39.71,3.36,2.39,7.99,4.08,12.08,4.17,20.26.45,39.46,4.8,57.62,13.8,2.4,1.19,5.28,2.88,7.62,2.48,16.93-2.85,33.03-7.87,48.45-20.74-5.04-4.17-9.94-7.13-13.35-11.31-5.64-6.9-10.34-7.5-18.97-3.64-28.67,12.85-56.08,8.71-79.72-11.99-23.8-20.85-32.39-48.74-21.16-77.48,7.2-18.43,1.92-27.35-10.64-37.16-.81-.63-1.63-1.24-4.44-3.36ZM848.24,496.98c7.53,17.71,14.41,33.9,20.46,48.13,31.49-31.21,63.33-62.77,95.33-94.49-44.23,1.44-82.51,17.98-115.79,46.36ZM988.79,474.01c-29.2,28.04-56.78,54.54-84.36,81.03.94,1.1,1.87,2.21,2.8,3.31,17.84,0,35.68.11,53.52-.13,2.37-.03,5.95-1.21,6.89-2.97,13.2-24.66,21.32-50.7,21.15-81.24ZM764.9,178.28c-18.1-18.83-35.98-37.43-54.92-57.13-7.75,20.85-3.77,38.07,9.15,50.36,9.85,9.37,30.68,15.9,45.78,6.77ZM811.36,294.49c14.4-8.63,28.52-17.09,40.19-24.09-6.91-8.78-12.8-16.27-17.97-22.85-14.28,7.74-27.21,14.75-40.16,21.77,5.36,7.52,10.91,15.3,17.94,25.16Z"/><path class="d" d="M984.93,157.61c.15,18.35-5.7,34.6-16.61,48.98-9.87,13.01-23.97,14.2-35.51,2.79-27.65-27.34-55.15-54.83-82.46-82.5-11.77-11.92-10.36-26.24,3.52-36.03,27.01-19.06,55.98-22.2,85.57-7.22,29.93,15.16,44.52,40.64,45.49,73.97ZM948.84,177.83c9.05-21.49,4.58-43.32-12.31-58.56-15.43-13.93-37.94-16.99-54.49-7.91,22.08,21.97,44.32,44.1,66.8,66.47Z"/><path class="d" d="M519.44,155.97c-1.19,32.43-15.2,57.56-44.11,72.81-28.88,15.24-57.66,13.14-84.89-4.87-16.83-11.12-18.1-25.15-3.96-39.38,26.44-26.6,52.94-53.13,79.57-79.55,13.19-13.08,27.53-11.7,38.2,3.57,9.9,14.16,15.3,29.86,15.19,47.4ZM416.17,201.53c17.89,10.74,43.72,5.62,59.44-12.37,13.96-15.97,16.59-40.82,6.35-53.64-21.93,22-43.94,44.08-65.79,66.01Z"/><path class="d" d="M758.34,494.8c-7.65,11.11-13.13,21.44-21.05,29.3-2.78,2.75-13.08,1.39-17.18-1.72-3.62-2.74-5.66-11.19-4.33-15.99,2.12-7.65,6.56-15.41,12.09-21.1,3.49-3.59,11.47-5.83,16.15-4.41,5.05,1.53,8.6,8.02,14.33,13.92Z"/><path class="d" d="M648.99,511.19c-5.6,6.13-8.75,12.28-13.5,13.99-4.45,1.6-12.7.35-15.55-2.91-6.13-7.01-11.11-15.7-14-24.54-1.31-4.01,2.14-11.81,5.89-14.6,3.71-2.77,13.09-3.87,15.48-1.38,7.96,8.26,13.89,18.48,21.67,29.44Z"/><path class="d" d="M695.35,488.56c0,3.42.28,6.87-.05,10.26-.88,8.8-7.34,14.91-15.37,14.87-7.83-.04-14.9-6.44-15.61-14.9-.52-6.12-.37-12.32-.12-18.47.4-9.9,7.07-16.87,15.77-16.89,8.77-.01,14.94,6.66,15.53,16.92.16,2.73.02,5.48.02,8.21-.06,0-.11,0-.17,0Z"/></g></svg>